<svg xmlns="http://www.w3.org/2000/svg" fill="none" viewBox="0 0 85 20">
  <path fill="#000" d="M28.1 8.9c0-.4-.2-.6-.6-.6h-1.7c-.4 0-.6.2-.6.6v3.2c0 .4.2.6.6.6h1.7c.4 0 .6-.2.6-.6V8.9Zm1.8 3.2c0 .7-.16 1.21-.48 1.53-.313.313-.82.47-1.52.47h-2.5c-.7 0-1.21-.157-1.53-.47-.313-.32-.47-.83-.47-1.53V8.9c0-.7.157-1.207.47-1.52.32-.32.83-.48 1.53-.48h2.5c.7 0 1.207.16 1.52.48.32.313.48.82.48 1.52v3.2Zm2.805.5h3.65V14h-5.45V7h1.8v5.6ZM37.057 7h4.2c.7 0 1.207.16 1.52.48.32.313.48.82.48 1.52v1c0 .7-.16 1.21-.48 1.53-.313.313-.82.47-1.52.47h-2.4v2h-1.8V7Zm4.4 2c0-.4-.2-.6-.6-.6h-2v2.2h2c.4 0 .6-.2.6-.6V9Zm7.2-.1c0-.4-.2-.6-.6-.6h-1.7c-.4 0-.6.2-.6.6v3.2c0 .4.2.6.6.6h1.7c.4 0 .6-.2.6-.6V8.9Zm1.8 3.2c0 .7-.16 1.21-.48 1.53-.314.313-.82.47-1.52.47h-2.5c-.7 0-1.21-.157-1.53-.47-.314-.32-.47-.83-.47-1.53V8.9c0-.7.156-1.207.47-1.52.32-.32.83-.48 1.53-.48h2.5c.7 0 1.206.16 1.52.48.32.313.48.82.48 1.52v3.2ZM54.86 14h-1.8V8.4h-2.1V7h6v1.4h-2.1V14Zm7.302-5.1c0-.4-.2-.6-.6-.6h-1.7c-.4 0-.6.2-.6.6v3.2c0 .4.2.6.6.6h1.7c.4 0 .6-.2.6-.6V8.9Zm1.8 3.2c0 .7-.16 1.21-.48 1.53-.314.313-.82.47-1.52.47h-2.5c-.7 0-1.21-.157-1.53-.47-.314-.32-.47-.83-.47-1.53V8.9c0-.7.156-1.207.47-1.52.32-.32.83-.48 1.53-.48h2.5c.7 0 1.206.16 1.52.48.32.313.48.82.48 1.52v3.2Zm5.504-3.2c0-.4-.2-.6-.6-.6h-1.7c-.4 0-.6.2-.6.6v3.2c0 .4.2.6.6.6h1.7c.4 0 .6-.2.6-.6V8.9Zm1.8 3.2c0 .7-.16 1.21-.48 1.53-.313.313-.82.47-1.52.47h-2.5c-.7 0-1.21-.157-1.53-.47-.313-.32-.47-.83-.47-1.53V8.9c0-.7.157-1.207.47-1.52.32-.32.83-.48 1.53-.48h2.5c.7 0 1.207.16 1.52.48.32.313.48.82.48 1.52v3.2Zm2.805.5h3.65V14h-5.45V7h1.8v5.6Zm4.142-.05c1.827.1 3.064.15 3.71.15a.486.486 0 0 0 .36-.13.5.5 0 0 0 .14-.37v-.9h-2.3c-.7 0-1.21-.157-1.53-.47-.313-.32-.47-.83-.47-1.53V9c0-.7.157-1.207.47-1.52.32-.32.83-.48 1.53-.48h3.51v1.4h-3.11c-.4 0-.6.2-.6.6v.2c0 .4.2.6.6.6h1.8c.654 0 1.134.153 1.44.46.307.307.46.787.46 1.44v.5c0 .653-.153 1.133-.46 1.44-.306.307-.786.46-1.44.46-.34 0-.7-.007-1.08-.02l-.92-.04a63.28 63.28 0 0 1-2.11-.14v-1.35Z"/>
  <path fill="#F8F8F8" stroke="url(#a)" stroke-linejoin="round" stroke-width="3" d="M12 12.5v-5h.5v5H12Zm-4 0h-.5v-5H8v5ZM18.5 6A4.5 4.5 0 0 0 14 1.5H6A4.5 4.5 0 0 0 1.5 6v8A4.5 4.5 0 0 0 6 18.5h8a4.5 4.5 0 0 0 4.5-4.5V6Z"/>
  <defs>
    <linearGradient id="a" x1="10" x2="10" y1="3" y2="17" gradientUnits="userSpaceOnUse">
      <stop stop-color="#6A067A"/>
      <stop offset="1" stop-color="#2A0845"/>
    </linearGradient>
  </defs>
</svg>
